<?xml version="1.0" encoding="iso-8859-1"?>
<!-- Generator: Adobe Illustrator 19.0.0, SVG Export Plug-In . SVG Version: 6.00 Build 0)  -->
<svg version="1.1" id="Capa_1" xmlns="http://www.w3.org/2000/svg" xmlns:xlink="http://www.w3.org/1999/xlink" x="0px" y="0px"
	 viewBox="0 0 512 512" style="enable-background:new 0 0 512 512;" xml:space="preserve">
<path style="fill:#FF5023;" d="M7.5,300.587v5.181c0,44.583,36.142,80.726,80.726,80.726H143v36.049h226v-36.049h54.774
	c44.584,0,80.726-36.142,80.726-80.726v-5.181L7.5,300.587L7.5,300.587z"/>
<path style="fill:#D80029;" d="M148.858,386.493c-44.584,0-80.726-36.142-80.726-80.726v-5.181H7.5v5.181
	c0,44.583,36.142,80.726,80.726,80.726H143v36.049h60.633v-36.049L148.858,386.493L148.858,386.493z"/>
<path style="fill:#C3FB3A;" d="M383.928,239.289h-6.439v-14.812c0-19.277-15.627-34.904-34.904-34.904h-6.83
	c2.101-7.053,3.245-14.519,3.245-22.255c0-43.002-34.86-77.863-77.863-77.863c0,0,22.254,26.675,22.254,50.059
	c0,27.646-22.412,50.058-50.058,50.058l0,0h-63.919c-19.277,0-34.904,15.627-34.904,34.904v14.812h-6.439
	c-22.743,0-41.181,18.437-41.181,41.181v18.538h338.218v-18.538C425.109,257.726,406.672,239.289,383.928,239.289z"/>
<g>
	<path style="fill:#65C27C;" d="M233.333,189.574L233.333,189.574h32l0,0c27.647,0,50.058-22.412,50.058-50.058
		c0-13.977-7.949-29.125-14.346-39.054c-11.672-6.982-25.318-11.004-39.908-11.004c0,0,22.254,26.675,22.254,50.059
		C283.392,167.161,260.98,189.574,233.333,189.574z"/>
	<path style="fill:#65C27C;" d="M160.072,239.289h6.439v-14.812c0-19.277,15.627-34.904,34.904-34.904h-32
		c-19.277,0-34.904,15.627-34.904,34.904v14.812h-6.439c-22.743,0-41.181,18.437-41.181,41.181v18.538h32V280.47
		C118.891,257.727,137.328,239.289,160.072,239.289z"/>
</g>
<path d="M432.609,293.087V280.47c0-26.487-21.266-48.102-47.619-48.669v-7.323c0-22.501-17.617-40.965-39.783-42.324
	c0.417-2.373,0.733-4.78,0.949-7.215c0.009-0.105,0.019-0.211,0.028-0.317c0.096-1.126,0.171-2.258,0.223-3.396
	c0.007-0.157,0.012-0.315,0.018-0.472c0.045-1.14,0.075-2.284,0.075-3.435c0-47.069-38.293-85.363-85.362-85.363h-16.024
	l10.266,12.305c5.705,6.839,20.513,28.301,20.513,45.254c0,23.467-19.091,42.559-42.558,42.559h-63.919
	c-23.382,0-42.404,19.022-42.404,42.404v7.323c-26.354,0.567-47.619,22.182-47.619,48.669v12.617H0v12.681
	c0,48.647,39.578,88.226,88.226,88.226H135.5v36.049h241v-36.049h47.274c48.648,0,88.226-39.578,88.226-88.226v-12.681
	L432.609,293.087L432.609,293.087z M128.072,246.789H183.5v-15h-41.49v-7.312c0-15.11,12.293-27.404,27.404-27.404h63.919
	c31.738,0,57.558-25.82,57.558-57.559c0-14.698-7.467-30.07-14.075-40.798c31.276,7.145,54.684,35.191,54.684,68.603
	c0,1.07-0.033,2.133-0.081,3.192c-0.015,0.328-0.034,0.656-0.053,0.984c-0.046,0.776-0.106,1.547-0.177,2.316
	c-0.03,0.322-0.053,0.644-0.088,0.966c-0.102,0.966-0.226,1.927-0.367,2.881c-0.063,0.425-0.138,0.848-0.209,1.271
	c-0.098,0.587-0.202,1.172-0.314,1.755c-0.091,0.47-0.184,0.94-0.284,1.408c-0.131,0.609-0.274,1.214-0.421,1.818
	c-0.139,0.572-0.282,1.142-0.435,1.71c-8.077,29.95-35.466,52.061-67.933,52.061v15c36.609,0,67.905-23.167,80.009-55.608h1.439
	c15.111,0,27.404,12.294,27.404,27.404v7.312H349.5v15h34.428c18.572,0,33.681,15.109,33.681,33.681v11.038H94.391V280.47
	c0-2.198,0.218-4.346,0.623-6.428H140v-15h-37.894C108.288,251.563,117.633,246.789,128.072,246.789z M423.774,378.993h-78.108v15
	H361.5v21.049h-39.227v-14h-15v14H150.5v-21.049H250v-15H88.226c-19.134,0-36.564-7.392-49.623-19.451H83.5v-15H26.141
	c-6.668-10.639-10.688-23.099-11.105-36.455h481.928C495.734,347.395,463.375,378.993,423.774,378.993z"/>
<g>
	<path style="fill:#FFFFFF;" d="M316.633,136.746c-1.566-4.083-3.467-8.078-5.647-11.876l-13.008,7.471
		c1.796,3.127,3.361,6.418,4.65,9.778L316.633,136.746z"/>
	<path style="fill:#FFFFFF;" d="M307.273,167.32c0,6.812-0.987,13.578-2.933,20.113l14.376,4.281
		c2.36-7.925,3.557-16.132,3.557-24.395c0-7.394-0.948-14.734-2.816-21.82l-14.504,3.826
		C306.492,155.162,307.273,161.217,307.273,167.32z"/>
	<rect x="377.49" y="259.039" style="fill:#FFFFFF;" width="16.51" height="15"/>
	<rect x="314.77" y="259.039" style="fill:#FFFFFF;" width="54.23" height="15"/>
	<rect x="435.11" y="319.019" style="fill:#FFFFFF;" width="32.23" height="15"/>
	<rect x="320.67" y="319.019" style="fill:#FFFFFF;" width="99.11" height="15"/>
</g>
<g>
</g>
<g>
</g>
<g>
</g>
<g>
</g>
<g>
</g>
<g>
</g>
<g>
</g>
<g>
</g>
<g>
</g>
<g>
</g>
<g>
</g>
<g>
</g>
<g>
</g>
<g>
</g>
<g>
</g>
</svg>
